<svg width="16" height="16" viewBox="0 0 16 16" fill="none" xmlns="http://www.w3.org/2000/svg">
<g id="icon_help" clip-path="url(#clip0_35_779)">
<path id="Vector" d="M7.99999 1.33301C4.31666 1.33301 1.33333 4.31634 1.33333 7.99967C1.33333 11.683 4.31666 14.6663 7.99999 14.6663C11.6833 14.6663 14.6667 11.683 14.6667 7.99967C14.6667 4.31634 11.6833 1.33301 7.99999 1.33301ZM8.66666 12.6663H7.33333V11.333H8.66666V12.6663ZM10.0433 7.50301L9.44666 8.11634C8.96666 8.59634 8.66666 8.99967 8.66666 9.99967H7.33333V9.66634C7.33333 8.92967 7.63333 8.26301 8.11333 7.77967L8.94333 6.93967C9.18333 6.69967 9.33333 6.36634 9.33333 5.99967C9.33333 5.26301 8.73666 4.66634 7.99999 4.66634C7.26333 4.66634 6.66666 5.26301 6.66666 5.99967H5.33333C5.33333 4.52634 6.52666 3.33301 7.99999 3.33301C9.47333 3.33301 10.6667 4.52634 10.6667 5.99967C10.6667 6.58634 10.43 7.11634 10.0433 7.50301Z" fill="#8B95A1"/>
</g>
<defs>
<clipPath id="clip0_35_779">
<rect width="16" height="16" fill="white"/>
</clipPath>
</defs>
</svg>
