<svg width="117" height="19" viewBox="0 0 117 19" fill="none" xmlns="http://www.w3.org/2000/svg">
<path d="M8.536 1.608C6.44 1.608 4.728 2.36 3.4 3.864C2.072 5.368 1.408 7.216 1.408 9.408C1.408 11.584 2.16 13.432 3.664 14.952C5.168 16.472 7 17.232 9.16 17.232C11.016 17.232 12.56 16.976 13.792 16.464V9.408H14.944V16.992C13.552 17.856 11.6 18.288 9.088 18.288C6.592 18.288 4.48 17.432 2.752 15.72C1.024 13.992 0.16 11.888 0.16 9.408C0.16 6.912 0.944 4.816 2.512 3.12C4.08 1.408 6.088 0.551999 8.536 0.551999C10.456 0.551999 12.4 0.871999 14.368 1.512L14.056 2.472C12.136 1.896 10.296 1.608 8.536 1.608ZM21.3824 12.6L19.1504 18H18.0224L24.5504 2.328H25.1984L31.7744 18H30.5504L28.2944 12.6H21.3824ZM24.8144 4.104C24.5744 4.824 24.3584 5.424 24.1664 5.904L21.7664 11.664H27.9104L25.5344 5.928C25.1664 5.032 24.9264 4.424 24.8144 4.104ZM42.1587 17.184H41.5107L36.9747 6.168C36.7827 5.736 36.5907 5.232 36.3987 4.656C36.3987 4.672 36.3827 4.76 36.3507 4.92C36.3347 5.08 36.3107 5.296 36.2787 5.568C36.2467 5.824 36.2147 6.04 36.1827 6.216L34.3827 18H33.3027L35.8467 2.328H36.4947L41.3427 13.824C41.7267 14.784 41.9187 15.288 41.9187 15.336C42.0307 15 42.2467 14.504 42.5667 13.848L47.9667 2.328H48.6147L50.9907 18H49.8387L48.1347 6.168C48.0227 5.384 47.9667 4.864 47.9667 4.608L47.2707 6.192L42.1587 17.184ZM58.2584 3.096C57.3944 3.096 56.6904 3.304 56.1464 3.72C55.6024 4.136 55.3304 4.72 55.3304 5.472C55.3304 6.336 55.6904 7.112 56.4104 7.8C56.9224 8.296 57.5784 8.824 58.3784 9.384C59.1944 9.928 59.7544 10.32 60.0584 10.56C60.3624 10.8 60.7304 11.128 61.1624 11.544C61.9464 12.328 62.3384 13.232 62.3384 14.256C62.3384 15.584 61.8904 16.592 60.9944 17.28C60.1144 17.952 58.8744 18.288 57.2744 18.288C55.6904 18.288 54.3624 17.872 53.2904 17.04L53.8664 16.2C54.9544 16.936 56.1064 17.304 57.3224 17.304C58.5384 17.304 59.4824 17.048 60.1544 16.536C60.8424 16.024 61.1864 15.304 61.1864 14.376C61.1864 13.576 60.8424 12.84 60.1544 12.168C59.6744 11.688 59.0264 11.168 58.2104 10.608C57.4104 10.048 56.8504 9.648 56.5304 9.408C56.2104 9.152 55.8344 8.816 55.4024 8.4C54.5864 7.584 54.1784 6.64 54.1784 5.568C54.1784 4.496 54.5544 3.656 55.3064 3.048C56.0744 2.44 57.1304 2.136 58.4744 2.136C59.8184 2.136 61.0264 2.4 62.0984 2.928L61.6904 3.816C60.6984 3.336 59.5544 3.096 58.2584 3.096ZM77.8508 16.392C76.7948 17.624 75.1868 18.24 73.0268 18.24C70.8668 18.24 69.2588 17.624 68.2028 16.392C67.1468 15.16 66.6188 13.456 66.6188 11.28V2.424H67.7228V11.28C67.7228 15.264 69.4908 17.256 73.0268 17.256C76.5628 17.256 78.3308 15.264 78.3308 11.28V2.424H79.4348V11.28C79.4348 13.456 78.9068 15.16 77.8508 16.392ZM85.0441 18V2.328H85.5721L95.7961 14.088C96.1641 14.504 96.5001 14.92 96.8041 15.336C97.1241 15.736 97.2921 15.944 97.3081 15.96C97.2761 15.576 97.2601 14.824 97.2601 13.704V2.424H98.3641V18.096H97.8361L87.4201 6.144L86.1001 4.536C86.1321 4.856 86.1481 5.608 86.1481 6.792V18H85.0441ZM110.626 3.168C108.85 3.168 107.354 3.848 106.138 5.208C104.938 6.552 104.338 8.208 104.338 10.176C104.338 12.144 105.018 13.816 106.378 15.192C107.738 16.552 109.338 17.232 111.178 17.232C113.034 17.232 114.474 17.016 115.498 16.584V10.176H116.602V17.088C115.354 17.856 113.586 18.24 111.298 18.24C109.01 18.24 107.082 17.464 105.514 15.912C103.946 14.36 103.162 12.456 103.162 10.2C103.162 7.928 103.866 6.024 105.274 4.488C106.698 2.952 108.53 2.184 110.77 2.184C112.578 2.184 114.346 2.464 116.074 3.024L115.786 3.936C114.122 3.424 112.402 3.168 110.626 3.168Z" fill="#191F28"/>
</svg>
