<?xml version="1.0" encoding="utf-8"?>
<!-- Generator: Adobe Illustrator 28.0.0, SVG Export Plug-In . SVG Version: 6.00 Build 0)  -->
<svg version="1.1" id="Layer_1" xmlns="http://www.w3.org/2000/svg" xmlns:xlink="http://www.w3.org/1999/xlink" x="0px" y="0px"
	 viewBox="0 0 198.8 264" style="enable-background:new 0 0 198.8 264;" xml:space="preserve">
<style type="text/css">
	.st0{fill:#231815;}
</style>
<g>
	<g>
		<g>
			<path class="st0" d="M111.5,141.7c-0.3-0.4-0.5-0.9-0.9-1.3c-0.1-0.1-0.2-0.3-0.3-0.5c-1-1.3-2.2-2.3-3.6-3.1
				c-0.4-0.3-0.9-0.5-1.3-0.7c1.5-0.9,2.8-2,4.1-3.4l1,4.8h5l-3.2-16.2H96.3v1.2h11l1.9,9.2c-0.7,0.9-1.5,1.6-2.4,2.1
				c-3.2,2-7.9,1.5-10.9-0.7c-0.3-0.2-0.6-0.4-0.8-0.6c-2.2-1.7-3.8-3.8-5.1-6.4c-0.3-0.6-0.5-1.2-0.7-1.8c-0.1-0.4-0.3-0.8-0.4-1.2
				c-0.5-1.7-0.7-3.3-0.7-5.1c0-2,0.3-3.7,1.1-5.2c0.7-1.5,1.8-2.6,3.1-3.4c1.3-0.8,2.9-1.2,4.6-1.2c1.9,0,3.9,0.5,6.1,1.4
				c2.2,0.9,4.3,2.3,6.3,4c0.4,0.3,0.8,0.4,1.2,0.4s0.7-0.2,0.9-0.5c0.3-0.3,0.3-0.7,0.3-1.1l-0.7-4.7c-1.3-0.6-2.7-1.1-4.3-1.4
				c-1.6-0.3-3.2-0.5-4.9-0.5c-3.7,0-6.8,0.8-9.4,2.4c-2.6,1.6-4.6,3.6-6,6.2c-1.3,2.6-2.1,5.4-2.2,8.4c0,2.8,0.6,5.5,1.8,7.8
				c0.1,0.2,0.2,0.4,0.3,0.6c0.3,0.4,0.6,0.9,0.9,1.3c0.1,0.1,0.2,0.3,0.3,0.5c1,1.3,2.2,2.3,3.6,3.1c1.5,0.9,3.2,1.4,4.8,1.9
				c2,0.6,4.2,1.1,6,2.2c2.6,1.5,4.6,3.9,5.8,6.6c0.3,0.6,0.5,1.2,0.7,1.8c0.1,0.4,0.3,0.8,0.4,1.2c0.5,1.7,0.7,3.3,0.7,5.1
				c0,2-0.3,3.7-1.1,5.2c-0.7,1.5-1.8,2.6-3.1,3.4c-1.3,0.8-2.9,1.2-4.6,1.2c-1.9,0-3.9-0.5-6.1-1.4c-2.2-0.9-4.3-2.3-6.3-4
				c-0.4-0.3-0.8-0.4-1.2-0.4c-0.4,0-0.7,0.2-0.9,0.5c-0.3,0.3-0.3,0.7-0.3,1.1l0.7,4.7c1.3,0.6,2.7,1.1,4.3,1.4
				c1.6,0.3,3.2,0.5,4.9,0.5c3.7,0,6.8-0.8,9.4-2.4c2.6-1.6,4.6-3.6,6-6.2c1.3-2.6,2.1-5.4,2.2-8.4c0-2.8-0.6-5.5-1.8-7.8
				C111.7,142.1,111.6,141.9,111.5,141.7z"/>
		</g>
	</g>
	<g>
		<g>
			<g>
				<path class="st0" d="M96.3,156.8C96.3,156.8,96.3,156.8,96.3,156.8c0-3.3,4.2-3.3,4.2-0.1c0,0,0,0,0,0.1c0,2-0.8,3.8-2.1,4.8
					C97.2,160.6,96.3,158.8,96.3,156.8z"/>
			</g>
		</g>
		<g>
			<g>
				<path class="st0" d="M93.7,151.8C93.7,151.8,93.7,151.8,93.7,151.8c3.2-1,4.4,3,1.4,4c0,0,0,0-0.1,0c-1.9,0.6-3.9,0.4-5.3-0.5
					C90.3,153.8,91.7,152.4,93.7,151.8z"/>
			</g>
		</g>
		<g>
			<g>
				<path class="st0" d="M97.6,147.7C97.6,147.7,97.6,147.8,97.6,147.7c1.9,2.7-1.4,5.1-3.4,2.5c0,0,0,0,0,0
					c-1.2-1.6-1.6-3.6-1.1-5.2C94.7,145.1,96.4,146.1,97.6,147.7z"/>
			</g>
		</g>
		<g>
			<g>
				<path class="st0" d="M102.7,150.2C102.7,150.2,102.7,150.2,102.7,150.2c-2,2.7-5.3,0.2-3.4-2.4c0,0,0,0,0,0
					c1.2-1.6,2.9-2.6,4.6-2.7C104.3,146.6,103.9,148.6,102.7,150.2z"/>
			</g>
		</g>
		<g>
			<g>
				<path class="st0" d="M101.9,155.8C101.9,155.8,101.9,155.8,101.9,155.8c-3.1-1-1.9-5,1.2-4c0,0,0,0,0.1,0c1.9,0.6,3.4,2,3.9,3.5
					C105.8,156.2,103.8,156.4,101.9,155.8z"/>
			</g>
		</g>
	</g>
</g>
<g>
	<path class="st0" d="M30.4,138.2c0,0.9-0.8,1.4-1.7,1.4c-0.5,0-1-0.2-1.4-0.5l-0.3,0.4c-0.1,0.1-0.4,0.2-0.4,0v-1.7
		c0-0.2,0.4-0.2,0.5,0c0.3,0.8,0.7,1.3,1.7,1.3c0.4,0,0.7-0.3,0.7-0.6c0-0.7-0.7-0.7-1.6-1c-0.6-0.2-1.2-0.6-1.2-1.4
		c0-0.8,0.7-1.3,1.5-1.3c0.4,0,0.9,0.1,1.3,0.4l0.2-0.3c0.1-0.1,0.5-0.2,0.5,0v1.4c0,0.2-0.4,0.2-0.5,0c-0.3-0.6-0.6-0.9-1.4-0.9
		c-0.4,0-0.6,0.2-0.6,0.5c0,0.4,0.3,0.6,0.8,0.7c0.8,0.2,1.3,0.3,1.7,0.7C30.2,137.4,30.4,137.7,30.4,138.2z"/>
	<path class="st0" d="M31.3,139.5c-0.1,0-0.2-0.1-0.2-0.2c0-0.1,0.1-0.2,0.2-0.2c0.5,0,0.5-0.1,0.5-0.7v-2.5c0-0.4,0-0.5-0.6-0.5
		c-0.2,0-0.2-0.4,0-0.4l1.6-0.1c0.1,0,0.2,0.1,0.2,0.1v3.3c0,0.6,0,0.7,0.5,0.7c0.1,0,0.2,0.1,0.2,0.2c0,0.1-0.1,0.2-0.2,0.2H31.3z
		 M33.1,133.3c0,0.4-0.3,0.7-0.7,0.7c-0.4,0-0.7-0.3-0.7-0.7c0-0.4,0.3-0.7,0.7-0.7C32.8,132.5,33.1,132.9,33.1,133.3z"/>
	<path class="st0" d="M37.4,139.5c-0.1,0-0.2-0.1-0.2-0.2c0-0.1,0.1-0.2,0.2-0.2c0.5,0,0.5-0.1,0.5-0.7v-1.7c0-0.8-0.3-1.2-0.8-1.2
		c-0.9,0-1.1,0.8-1.1,1.6v1.3c0,0.6,0,0.7,0.5,0.7c0.1,0,0.2,0.1,0.2,0.2c0,0.1-0.1,0.2-0.2,0.2h-2.2c-0.1,0-0.2-0.1-0.2-0.2
		c0-0.1,0.1-0.2,0.2-0.2c0.5,0,0.5,0,0.5-0.7v-2.5c0-0.3,0-0.5-0.6-0.5c-0.3,0-0.3-0.4,0-0.4l1.6-0.1c0.1,0,0.1,0.1,0.1,0.1v0.5
		c0.4-0.5,0.8-0.7,1.4-0.7c0.9,0,1.7,0.6,1.7,1.7v1.8c0,0.6,0,0.7,0.5,0.7c0.1,0,0.2,0.1,0.2,0.2c0,0.1-0.1,0.2-0.2,0.2H37.4z"/>
	<path class="st0" d="M44.4,138.4c-0.3,0.7-0.8,1.2-1.9,1.2c-1.2,0-2.1-1.1-2.1-2.3c0-1.5,0.8-2.6,2.4-2.6c0.3,0,0.6,0.1,0.9,0.2
		c0.3,0.2,0.6,0.5,0.6,1c0,0.3-0.3,0.6-0.6,0.6c-0.3,0-0.6-0.2-0.6-0.5c0-0.2,0-0.3,0.1-0.4c0.1-0.1,0.1-0.2,0.1-0.3
		c-0.1-0.2-0.3-0.2-0.6-0.2c-0.7,0-1.1,0.8-1.1,1.8c0,1.1,0.5,1.8,1.2,1.8c0.6,0,0.8-0.3,1-0.7C44,138,44.5,138.2,44.4,138.4z"/>
	<path class="st0" d="M49.3,137.1c0,0.1,0,0.2-0.1,0.2h-2.8c0,1,0.4,1.7,1.3,1.7c0.6,0,1-0.3,1.2-0.8c0.1-0.1,0.6,0,0.5,0.1
		c-0.3,0.8-0.9,1.3-2,1.3c-1.3,0-2.2-0.9-2.2-2.3c0-1.3,0.8-2.5,2.2-2.5C48.7,134.8,49.3,136,49.3,137.1z M48.1,136.5
		c0-0.6-0.3-1.2-0.8-1.2c-0.7,0-0.9,0.8-0.9,1.6h1.4C48,136.8,48.1,136.8,48.1,136.5z"/>
	<path class="st0" d="M57.7,139.4c0,0.1,0,0.1-0.1,0.1c-1.2-0.1-2.4-0.1-3.9,0c-0.1,0-0.1-0.3-0.1-0.4c0-0.4,1.4-2,2.1-2.7
		c0.5-0.5,1-1.2,1-2.2c0-0.7-0.4-1.2-1.1-1.2c-0.5,0-1,0.3-1,0.8c0,0.3,0.2,0.2,0.4,0.3c0.2,0.1,0.2,0.5,0.2,0.7
		c-0.1,0.4-0.5,0.5-0.7,0.5c-0.5-0.1-0.7-0.6-0.7-1c0-0.7,0.3-1.2,1-1.6c0.3-0.2,0.8-0.3,1.1-0.3c1,0,2.1,0.7,2.1,1.9
		c0,0.9-0.5,1.6-1.1,2.2c-1.3,1.1-1.7,1.5-1.9,1.8h1.8c0.6,0,0.7-0.1,0.9-0.9c0.1-0.3,0.4-0.2,0.4,0L57.7,139.4z"/>
	<path class="st0" d="M63.6,136c0,1.8-0.9,3.6-2.4,3.6c-1.5,0-2.4-1.8-2.4-3.6c0-1.8,0.9-3.6,2.4-3.6
		C62.6,132.4,63.6,134.2,63.6,136z M62.3,136c0-1.8-0.3-3-1.1-3c-0.8,0-1.1,1.3-1.1,3c0,1.8,0.3,3,1.1,3
		C62,139.1,62.3,137.8,62.3,136z"/>
	<path class="st0" d="M68.5,139.4c0,0.1,0,0.1-0.1,0.1c-1.2-0.1-2.4-0.1-3.9,0c-0.1,0-0.1-0.3-0.1-0.4c0-0.4,1.4-2,2.1-2.7
		c0.5-0.5,1-1.2,1-2.2c0-0.7-0.4-1.2-1.1-1.2c-0.5,0-1,0.3-1,0.8c0,0.3,0.2,0.2,0.4,0.3c0.2,0.1,0.2,0.5,0.2,0.7
		c-0.1,0.4-0.5,0.5-0.7,0.5c-0.5-0.1-0.7-0.6-0.7-1c0-0.7,0.3-1.2,1-1.6c0.3-0.2,0.8-0.3,1.1-0.3c1,0,2.1,0.7,2.1,1.9
		c0,0.9-0.5,1.6-1.1,2.2c-1.3,1.1-1.7,1.5-1.9,1.8h1.8c0.6,0,0.7-0.1,0.9-0.9c0.1-0.3,0.4-0.2,0.4,0L68.5,139.4z"/>
	<path class="st0" d="M74.1,137.6c0,1.2-1.1,2-2.3,2c-1,0-2.1-0.5-2.1-1.7c0-0.4,0.3-0.8,0.7-0.8c0.3,0,0.7,0.2,0.7,0.6
		c0,0.2,0,0.4-0.3,0.5c-0.1,0.1-0.2,0.2-0.1,0.3c0.2,0.3,0.4,0.4,1,0.4c0.6,0,1.2-0.6,1.2-1.5c0-0.9-0.5-1.5-1.1-1.5
		c0,0-0.6,0-0.7,0c0,0-0.1-0.1-0.1-0.2c0-0.3,0.3-0.3,0.5-0.3c0.4,0,0.6-0.1,0.8-0.3c0.3-0.3,0.4-0.6,0.4-1c0-0.8-0.5-1.2-0.9-1.2
		c-0.5,0-0.7,0.1-0.8,0.3c-0.1,0.2,0,0.3,0.1,0.4c0.1,0.1,0.2,0.3,0.2,0.5c0,0.3-0.4,0.6-0.7,0.6c-0.4,0-0.6-0.3-0.6-0.7
		c0-0.5,0.3-1,0.7-1.2c0.4-0.3,0.8-0.4,1.3-0.4c1,0,1.9,0.6,1.9,1.8c0,0.7-0.6,1.4-1.2,1.6C73.5,136,74.1,136.7,74.1,137.6z"/>
</g>
<g>
	<path class="st0" d="M133.9,135.2c0,0.3-0.3,0.6-0.6,0.5c-0.2,0-0.2-0.2-0.3-0.4c-0.1-0.2-0.4,0.1-0.4,0.2c0.2,0.3,0.3,0.5,0.3,0.8
		c0,0.6-0.2,1-0.7,1.3c-0.4,0.2-0.9,0.3-1.5,0.3c-0.3,0-0.7,0-0.7,0.3c0,0.2,0.2,0.3,0.4,0.3c0.7,0,1.2,0,1.9,0.1
		c0.6,0.1,1.1,0.5,1.1,1.2c0,1.1-1.2,1.4-2.3,1.4c-0.8,0-2.3-0.1-2.3-1c0-0.6,0.6-0.7,0.8-0.7v-0.1c-0.4-0.1-0.6-0.4-0.6-0.8
		c0-0.5,0.3-0.7,0.9-0.9c-0.6-0.3-0.8-0.7-0.8-1.3c0-0.9,0.8-1.5,1.9-1.5c0.4,0,0.9,0.1,1.3,0.4c0.3-0.2,0.6-0.5,1-0.5
		C133.6,134.7,133.9,134.8,133.9,135.2z M132.3,139.9c0-0.4-0.2-0.4-0.5-0.5c-0.5-0.1-1.1-0.1-1.5,0c-0.2,0-0.5,0.2-0.5,0.6
		c0,0.5,0.6,0.5,1.3,0.5C131.7,140.5,132.3,140.4,132.3,139.9z M131.7,136.2c0-0.7-0.3-1-0.7-1c-0.5,0-0.7,0.3-0.7,1
		c0,0.7,0.3,1,0.7,1C131.4,137.3,131.7,136.9,131.7,136.2z"/>
	<path class="st0" d="M139.2,139c-0.1,0.3-0.7,0.5-0.9,0.5c-0.4,0-0.8-0.2-1-0.7c-0.5,0.5-1,0.7-1.6,0.7c-0.8,0-1.4-0.4-1.4-1.2
		c0-1.3,1.8-1.7,2.9-1.8V136c0-0.4-0.2-0.7-0.9-0.7c-0.3,0-0.5,0-0.7,0.2c-0.1,0.1-0.1,0.2,0,0.3c0.1,0.1,0.1,0.2,0.1,0.3
		c0,0.3-0.4,0.5-0.7,0.5c-0.3,0-0.6-0.2-0.6-0.6c0-0.4,0.4-0.8,0.7-0.9c0.4-0.2,0.8-0.3,1.3-0.3c1.4,0,1.8,0.6,1.8,1.5v2.1
		c0,0.5,0.3,0.6,0.7,0.5C139.2,138.8,139.2,139,139.2,139z M137.2,137.2c-0.9,0.1-1.7,0.3-1.7,1.2c0,0.4,0.3,0.6,0.5,0.6
		c0.4,0,0.6-0.1,0.9-0.4C137.2,138.3,137.2,137.8,137.2,137.2z"/>
	<path class="st0" d="M145.5,139.5c-0.1,0-0.2-0.1-0.2-0.2c0-0.1,0.1-0.2,0.2-0.2c0.5,0,0.5-0.1,0.5-0.7v-1.7c0-0.7-0.2-1.1-0.7-1.1
		c-0.7,0-1,0.7-1,1.4v1.4c0,0.6,0,0.7,0.4,0.7c0.1,0,0.2,0.1,0.2,0.2c0,0.1-0.1,0.2-0.2,0.2h-2c-0.1,0-0.2-0.1-0.2-0.2
		c0-0.1,0.1-0.2,0.2-0.2c0.5,0,0.5-0.1,0.5-0.7v-1.8c0-0.8-0.3-1.1-0.8-1.1c-0.6,0-0.9,0.7-0.9,1.3v1.5c0,0.6,0,0.7,0.5,0.7
		c0.1,0,0.2,0.1,0.2,0.2c0,0.1-0.1,0.2-0.2,0.2h-2.1c-0.1,0-0.2-0.1-0.2-0.2c0-0.1,0.1-0.2,0.2-0.2c0.5,0,0.5-0.1,0.5-0.7v-2.5
		c0-0.4,0-0.5-0.6-0.5c-0.3,0-0.3-0.4,0-0.4l1.6-0.1c0.1,0,0.1,0,0.1,0.1v0.5c0.3-0.5,0.8-0.7,1.2-0.7c0.7,0,1.2,0.4,1.4,1
		c0.3-0.6,0.9-1,1.4-1c0.9,0,1.6,0.6,1.6,1.7v1.8c0,0.6,0,0.7,0.5,0.7c0.1,0,0.2,0.1,0.2,0.2c0,0.1-0.1,0.2-0.2,0.2H145.5z"/>
	<path class="st0" d="M152.4,138.2c0,0.9-0.8,1.4-1.7,1.4c-0.5,0-1-0.2-1.4-0.5l-0.3,0.4c-0.1,0.1-0.4,0.2-0.4,0v-1.7
		c0-0.2,0.4-0.2,0.5,0c0.3,0.8,0.7,1.3,1.7,1.3c0.4,0,0.7-0.3,0.7-0.6c0-0.7-0.7-0.7-1.6-1c-0.6-0.2-1.2-0.6-1.2-1.4
		c0-0.8,0.7-1.3,1.5-1.3c0.4,0,0.9,0.1,1.3,0.4l0.2-0.3c0.1-0.1,0.5-0.2,0.5,0v1.4c0,0.2-0.4,0.2-0.5,0c-0.3-0.6-0.6-0.9-1.4-0.9
		c-0.4,0-0.6,0.2-0.6,0.5c0,0.4,0.3,0.6,0.8,0.7c0.8,0.2,1.3,0.3,1.7,0.7C152.2,137.4,152.4,137.7,152.4,138.2z"/>
	<path class="st0" d="M156.8,139.5c0,0-0.1,0-0.1-0.1l0-0.5c-0.3,0.5-0.9,0.7-1.4,0.7c-1,0-1.6-0.6-1.6-1.7v-2c0-0.3,0-0.5-0.6-0.5
		c-0.3,0-0.3-0.4,0-0.4l1.7-0.1c0,0,0.1,0,0.1,0.1v2.9c0,0.7,0.3,1,0.7,1c0.8,0,1.1-0.7,1.1-1.4v-1.7c0-0.3,0-0.5-0.6-0.5
		c-0.3,0-0.3-0.4,0-0.4l1.6-0.1c0.1,0,0.1,0,0.1,0.1v3.5c0,0.4-0.1,0.5,0.6,0.5c0.2,0,0.2,0.4,0,0.4L156.8,139.5z"/>
	<path class="st0" d="M162.4,139.5c-0.1,0-0.2-0.1-0.2-0.2c0-0.1,0.1-0.2,0.2-0.2c0.5,0,0.5-0.1,0.5-0.7v-1.7c0-0.7-0.3-1.2-0.8-1.2
		c-0.9,0-1.1,0.8-1.1,1.6v1.3c0,0.6,0,0.7,0.5,0.7c0.1,0,0.2,0.1,0.2,0.2c0,0.1-0.1,0.2-0.2,0.2h-2.2c-0.1,0-0.2-0.1-0.2-0.2
		c0-0.1,0.1-0.2,0.2-0.2c0.5,0,0.5,0,0.5-0.7v-2.5c0-0.3,0-0.5-0.6-0.5c-0.3,0-0.3-0.4,0-0.4l1.6-0.1c0.1,0,0.1,0.1,0.1,0.1v0.5
		c0.4-0.5,0.8-0.7,1.4-0.7c0.9,0,1.7,0.6,1.7,1.7v1.8c0,0.6,0,0.7,0.5,0.7c0.1,0,0.2,0.1,0.2,0.2c0,0.1-0.1,0.2-0.2,0.2H162.4z"/>
	<path class="st0" d="M170.5,135.2c0,0.3-0.3,0.6-0.6,0.5c-0.2,0-0.2-0.2-0.3-0.4c-0.1-0.2-0.4,0.1-0.4,0.2c0.2,0.3,0.3,0.5,0.3,0.8
		c0,0.6-0.2,1-0.7,1.3c-0.4,0.2-0.9,0.3-1.5,0.3c-0.3,0-0.7,0-0.7,0.3c0,0.2,0.2,0.3,0.4,0.3c0.6,0,1.2,0,1.9,0.1
		c0.6,0.1,1.1,0.5,1.1,1.2c0,1.1-1.2,1.4-2.3,1.4c-0.8,0-2.3-0.1-2.3-1c0-0.6,0.6-0.7,0.8-0.7v-0.1c-0.4-0.1-0.6-0.4-0.6-0.8
		c0-0.5,0.3-0.7,0.9-0.9c-0.6-0.3-0.8-0.7-0.8-1.3c0-0.9,0.8-1.5,1.9-1.5c0.4,0,0.9,0.1,1.3,0.4c0.3-0.2,0.6-0.5,1-0.5
		C170.2,134.7,170.5,134.8,170.5,135.2z M168.9,139.9c0-0.4-0.2-0.4-0.5-0.5c-0.5-0.1-1.1-0.1-1.5,0c-0.2,0-0.5,0.2-0.5,0.6
		c0,0.5,0.6,0.5,1.3,0.5C168.3,140.5,168.9,140.4,168.9,139.9z M168.3,136.2c0-0.7-0.3-1-0.7-1c-0.5,0-0.7,0.3-0.7,1
		c0,0.7,0.3,1,0.7,1C168,137.3,168.3,136.9,168.3,136.2z"/>
</g>
<g>
	<path class="st0" d="M147.1,178.3H51.6c-23.1,0-41.9-18.8-41.9-41.9s18.8-41.9,41.9-41.9h95.5c23.1,0,41.9,18.8,41.9,41.9
		S170.2,178.3,147.1,178.3z M51.6,96.9c-21.8,0-39.5,17.7-39.5,39.5s17.7,39.5,39.5,39.5h95.5c21.8,0,39.5-17.7,39.5-39.5
		s-17.7-39.5-39.5-39.5H51.6z"/>
</g>
<g>
	<path class="st0" d="M146.3,174.7H52.5c-21.1,0-38.3-17.2-38.3-38.3c0-21.1,17.2-38.3,38.3-38.3h93.8c21.1,0,38.3,17.2,38.3,38.3
		C184.6,157.5,167.4,174.7,146.3,174.7z M52.5,99.4c-20.4,0-37,16.6-37,37c0,20.4,16.6,37,37,37h93.8c20.4,0,37-16.6,37-37
		c0-20.4-16.6-37-37-37H52.5z"/>
</g>
<g>
	<rect x="23.6" y="143.2" class="st0" width="52.5" height="0.6"/>
</g>
<g>
	<rect x="23.6" y="144.7" class="st0" width="52.5" height="0.6"/>
</g>
<g>
	<rect x="124.8" y="143.2" class="st0" width="48.4" height="0.6"/>
</g>
<g>
	<rect x="124.8" y="144.7" class="st0" width="48.4" height="0.6"/>
</g>
</svg>
